<svg width="115" height="100" viewBox="0 0 115 100" fill="none" xmlns="http://www.w3.org/2000/svg">
<path d="M25.7002 20.2276V53.9376C25.7002 54.3976 25.9402 54.8276 26.3402 55.0576L55.5702 72.2876C55.9702 72.5176 56.4602 72.5276 56.8602 72.3076L64.8502 67.8976C65.2702 67.6676 65.5302 67.2276 65.5302 66.7476V52.1176C65.5302 51.8376 65.2302 51.6676 64.9802 51.8076L59.1002 55.2776C58.7002 55.5176 58.2102 55.5176 57.8102 55.2976L41.6902 46.3676C40.9402 45.9476 40.4602 45.1676 40.4302 44.3076L39.8802 27.9476C39.8502 27.1976 40.2202 26.4976 40.8502 26.0876L55.5002 16.6776C56.1402 16.2676 56.9502 16.2476 57.6102 16.6276L74.5902 26.4076C74.9502 26.6176 75.3902 26.5976 75.7302 26.3676L81.0702 22.8076C81.5802 22.4676 82.2502 22.4676 82.7602 22.8176L88.1502 26.4976C88.5002 26.7376 88.9802 26.4876 88.9802 26.0576V18.9976C88.9802 18.4276 88.6802 17.8976 88.1802 17.6076L58.0902 0.197568C57.6302 -0.0724316 57.0502 -0.0624295 56.5902 0.207571L27.0002 17.9376C26.1902 18.4176 25.7002 19.2876 25.7002 20.2276Z" fill="#4553A4"/>
<path d="M24.09 32.9575V47.5675C24.09 48.0075 23.85 48.4075 23.47 48.6075L15.6 52.7175C15.16 52.9475 14.88 53.4075 14.87 53.9075L14.67 73.2775C14.66 73.8375 14.96 74.3575 15.45 74.6375L30.93 83.3875C31.26 83.5775 31.67 83.5775 32.01 83.3875L47.68 74.5675C47.99 74.3875 48.21 74.0775 48.25 73.7175L48.61 71.0175C48.66 70.6475 49.08 70.4575 49.39 70.6575L55.89 74.9275L62.3 71.3375C62.6 71.1675 62.96 71.3875 62.96 71.7275V80.3475C62.96 80.7675 62.74 81.1675 62.38 81.3875L32.49 99.6075C32 99.9075 31.38 99.9075 30.89 99.6175L0.760002 81.9075C0.290002 81.6275 0 81.1275 0 80.5775V46.8775C0 46.2775 0.32 45.7275 0.84 45.4275L23.17 32.4275C23.58 32.1875 24.09 32.4775 24.09 32.9575Z" fill="#5B2D8F"/>
<path d="M65.4602 71.5476C65.3502 71.4776 65.2102 71.5576 65.2102 71.6876V80.1776V80.7576C65.2102 81.4076 64.9002 82.0076 64.3702 82.3876L60.8402 84.8976C60.6302 85.0476 60.6402 85.3576 60.8602 85.4876L81.1602 97.5076C81.6202 97.7776 82.2002 97.7776 82.6602 97.5076L113.23 79.3676C113.73 79.0676 114.03 78.5376 114.03 77.9576V44.4776C114.03 43.6376 113.58 42.8676 112.85 42.4476L82.9502 25.3676C82.2302 24.9576 81.3502 24.9576 80.6402 25.3676L51.9002 41.9476C51.4502 42.2076 51.1802 42.6876 51.1802 43.1976V49.5376L57.8802 53.0876C58.2402 53.2776 58.6802 53.2776 59.0402 53.0876L80.6102 41.4676C81.4102 41.0376 82.3802 41.0776 83.1402 41.5876L97.6702 51.2376C98.1902 51.5876 98.5102 52.1676 98.5002 52.7976L98.4002 69.7976C98.4002 70.1876 98.2002 70.5576 97.8702 70.7676L82.4502 80.7476C81.9902 81.0476 81.3902 81.0576 80.9202 80.7776L65.4602 71.5476Z" fill="#912990"/>
</svg>
