<svg width="204" height="30" viewBox="0 0 204 30" fill="none" xmlns="http://www.w3.org/2000/svg">
<path d="M6.21387 6.06396V15.8248C6.21387 15.9579 6.28457 16.0825 6.40242 16.1491L15.0138 21.138C15.1317 21.2046 15.276 21.2075 15.3939 21.1438L17.7478 19.8669C17.8716 19.8003 17.9481 19.6729 17.9481 19.5339V15.2978C17.9481 15.2167 17.8598 15.1675 17.7861 15.208L16.0538 16.2128C15.936 16.2822 15.7916 16.2822 15.6738 16.2185L10.9247 13.6328C10.7037 13.5112 10.5623 13.2854 10.5535 13.0364L10.3914 8.2993C10.3826 8.08214 10.4916 7.87945 10.6772 7.76074L14.9932 5.03605C15.1818 4.91734 15.4204 4.91154 15.6148 5.02157L20.6173 7.85339C20.7234 7.9142 20.853 7.90841 20.9532 7.84181L22.5264 6.811C22.6766 6.71256 22.874 6.71256 23.0243 6.8139L24.6122 7.87945C24.7153 7.94894 24.8567 7.87656 24.8567 7.75205V5.70781C24.8567 5.54277 24.7684 5.38931 24.621 5.30534L15.7563 0.264238C15.6207 0.186059 15.4499 0.188955 15.3143 0.267134L6.59686 5.40089C6.35823 5.53987 6.21387 5.79178 6.21387 6.06396Z" fill="white"/>
<path d="M6.34062 10.8723V14.9602C6.34062 15.0833 6.27746 15.1953 6.17744 15.2512L4.10601 16.4012C3.9902 16.4656 3.9165 16.5943 3.91387 16.7342L3.86123 22.154C3.85859 22.3106 3.93756 22.4561 4.06653 22.5345L8.14095 24.9828C8.22781 25.0359 8.33572 25.0359 8.42521 24.9828L12.5496 22.5149C12.6312 22.4645 12.6891 22.3778 12.6997 22.2771L12.7944 21.5216C12.8076 21.4181 12.9181 21.3649 12.9997 21.4209L14.7106 22.6156L16.3977 21.6111C16.4767 21.5636 16.5714 21.6251 16.5714 21.7203V24.1322C16.5714 24.2497 16.5135 24.3616 16.4188 24.4232L8.55155 29.5212C8.42258 29.6051 8.25939 29.6051 8.13042 29.524L0.200037 24.5687C0.0763302 24.4903 0 24.3504 0 24.1965V14.7672C0 14.5993 0.0842258 14.4454 0.221093 14.3614L6.09847 10.724C6.20639 10.6569 6.34062 10.738 6.34062 10.8723Z" fill="white"/>
<path d="M18.2652 22.0271C18.2362 22.0069 18.1992 22.03 18.1992 22.0676V24.5196V24.6872C18.1992 24.8749 18.1175 25.0482 17.9778 25.1579L17.047 25.8829C16.9916 25.9262 16.9943 26.0157 17.0523 26.0533L22.4047 29.5249C22.526 29.6029 22.6789 29.6029 22.8002 29.5249L30.8605 24.2857C30.9923 24.1991 31.0714 24.046 31.0714 23.8785V14.2088C31.0714 13.9661 30.9528 13.7438 30.7603 13.6225L22.8767 8.6894C22.6868 8.57098 22.4548 8.57098 22.2676 8.6894L14.6898 13.478C14.5712 13.5531 14.5 13.6918 14.5 13.8391V15.6702L16.2666 16.6955C16.3615 16.7504 16.4775 16.7504 16.5724 16.6955L22.2597 13.3394C22.4706 13.2152 22.7264 13.2268 22.9268 13.3741L26.7578 16.1612C26.895 16.2623 26.9793 16.4298 26.9767 16.6117L26.9503 21.5217C26.9503 21.6343 26.8976 21.7412 26.8106 21.8018L22.7448 24.6843C22.6236 24.7709 22.4654 24.7738 22.3414 24.6929L18.2652 22.0271Z" fill="white"/>
<path d="M49.0943 10.5769C50.911 10.9432 51.9353 12.0087 52.1669 13.7775V17.9729C51.9993 19.2507 51.4506 20.1497 50.5148 20.6741L52.1456 25.2649H48.6889L47.0947 21.1236H42.4674L44.1379 17.923H47.5946C48.5944 17.923 49.0912 17.3361 49.0912 16.1666V15.6671C49.0912 14.4102 48.5669 13.7775 47.5153 13.7775H40.6202V25.2607H37.5293V10.5769H49.0943Z" fill="white"/>
<path d="M62.0616 25.2607H53.5723L58.9097 10.5769H63.7869L69.1243 25.2607H65.5152L61.3483 13.7775L58.3336 22.0642H63.729L62.0616 25.2607Z" fill="white"/>
<path d="M82.0497 17.5775L80.9737 19.6752L73.6 14.7182V25.2607H70.5273V10.5769H73.6L82.0497 16.3705V10.5769H85.1406V25.2607H82.0497V17.5775Z" fill="white"/>
<path d="M91.9567 16.2914H98.5805C100.397 16.6577 101.421 17.7232 101.653 19.4921V22.1142C101.421 23.933 100.397 24.9818 98.5805 25.2607H90.0912C88.2744 24.9818 87.2502 23.933 87.0186 22.1142V13.7775C87.2502 12.0128 88.2744 10.9473 90.0912 10.5769H101.632L99.9796 13.7775H91.6641C90.6155 13.7775 90.0881 14.406 90.0881 15.6671V20.3078C90.0881 21.4774 90.588 22.0642 91.5848 22.0642H97.0777C98.0776 22.0642 98.5744 21.6522 98.5744 20.8323C98.5744 20.3078 98.4464 19.9541 98.1903 19.7709C97.9343 19.5878 97.538 19.4962 96.9985 19.4962H93.6454L91.9567 16.2914Z" fill="white"/>
<path d="M117.094 16.3705L115.423 19.5711H106.608V20.3037C106.608 21.4732 107.108 22.0601 108.104 22.0601H117.13L115.46 25.2607H106.608C104.791 24.9818 103.767 23.933 103.535 22.1142V13.7775C103.767 12.0128 104.791 10.9473 106.608 10.5769H117.112V13.7775H108.184C107.135 13.7775 106.608 14.406 106.608 15.6671V18.3933L107.662 16.3747H117.094V16.3705Z" fill="white"/>
<path d="M120.683 22.0601H128.98C129.517 22.0601 129.916 21.9685 130.172 21.7854C130.428 21.6022 130.556 21.2485 130.556 20.724C130.556 20.3037 130.431 20.004 130.181 19.8209C129.931 19.6377 129.556 19.5462 129.057 19.5462H122.067C120.25 19.2673 119.226 18.2185 118.994 16.3996V13.7775C119.226 12.0128 120.25 10.9473 122.067 10.5769H133.629V13.7775H123.64C123.103 13.7775 122.704 13.8691 122.448 14.0522C122.192 14.2354 122.064 14.5891 122.064 15.1136C122.064 15.9335 122.564 16.3455 123.561 16.3455H130.55C132.367 16.6244 133.391 17.6566 133.623 19.438V22.0601C133.391 23.8248 132.367 24.8903 130.55 25.2607H118.988L120.683 22.0601Z" fill="white"/>
<path d="M135.513 10.5769H148.995V13.7775H143.792V25.2607H140.719V13.7775H135.516V10.5769H135.513Z" fill="white"/>
<path d="M153.943 10.5769H162.432C164.249 10.9432 165.273 12.0087 165.505 13.7775V22.1142C165.273 23.933 164.249 24.9818 162.432 25.2607H153.943C152.126 24.9818 151.102 23.933 150.87 22.1142V13.7775C151.099 12.0087 152.123 10.9432 153.943 10.5769ZM153.943 15.663V20.3037C153.943 21.4732 154.443 22.0601 155.439 22.0601H160.932C161.932 22.0601 162.429 21.4732 162.429 20.3037V15.663C162.429 14.406 161.905 13.7734 160.853 13.7734H155.516C154.467 13.7775 153.943 14.406 153.943 15.663Z" fill="white"/>
<path d="M178.952 10.5769C180.768 10.9432 181.793 12.0087 182.024 13.7775V17.9729C181.857 19.2507 181.308 20.1497 180.372 20.6741L182.006 25.2649H178.549L176.955 21.1236H172.328L173.998 17.923H177.455C178.455 17.923 178.952 17.3361 178.952 16.1666V15.6671C178.952 14.4102 178.427 13.7775 177.376 13.7775H170.481V25.2607H167.39V10.5769H178.952Z" fill="white"/>
<path d="M200.246 13.7234L196.003 25.2607H191.241L186.998 13.7234V25.2607H183.907V10.5769H189.4L193.625 22.0892L197.85 10.5769H203.343V25.2607H200.252V13.7234H200.246Z" fill="white"/>
</svg>
